<svg width="193" height="192" viewBox="0 0 193 192" fill="none" xmlns="http://www.w3.org/2000/svg">
<path d="M0.5 7C0.5 3.134 3.63401 0 7.5 0H185.5C189.366 0 192.5 3.13401 192.5 7V185C192.5 188.866 189.366 192 185.5 192H7.5C3.634 192 0.5 188.866 0.5 185V7Z" fill="#F9FAFB"/>
<rect x="31.5" y="50" width="130" height="32" rx="3" stroke="#615D5A" stroke-width="2"/>
<rect x="31.5" y="109" width="130" height="32" rx="3" stroke="#615D5A" stroke-width="2"/>
<rect x="38.5" y="56" width="28" height="28" rx="3" fill="#F9FAFB" stroke="#615D5A" stroke-width="2"/>
<rect x="89.5" y="58" width="21" height="16" rx="3" stroke="#615D5A" stroke-width="2"/>
<circle cx="100" cy="66" r="1.125" stroke="#615D5A" stroke-width="0.75"/>
<rect x="84.5" y="114" width="24" height="21" rx="3" stroke="#615D5A" stroke-width="2"/>
<circle cx="101.5" cy="119.5" r="3.125" stroke="#615D5A" stroke-width="0.75"/>
<circle cx="101.5" cy="129.5" r="3.125" stroke="#615D5A" stroke-width="0.75"/>
<circle cx="91.5" cy="119.5" r="3.125" stroke="#615D5A" stroke-width="0.75"/>
<circle cx="91.5" cy="129.5" r="3.125" stroke="#615D5A" stroke-width="0.75"/>
</svg>
