<svg width="193" height="192" viewBox="0 0 193 192" fill="none" xmlns="http://www.w3.org/2000/svg">
<path d="M0.5 7C0.5 3.134 3.63401 0 7.5 0H185.5C189.366 0 192.5 3.13401 192.5 7V185C192.5 188.866 189.366 192 185.5 192H7.5C3.634 192 0.5 188.866 0.5 185V7Z" fill="#F9FAFB"/>
<path d="M152 59H40C37.7909 59 36 60.7909 36 63V135C36 137.209 37.7909 139 40 139H61C63.2091 139 65 137.209 65 135V90.5C65 88.2909 66.7909 86.5 69 86.5H124C126.209 86.5 128 88.2909 128 90.5V135C128 137.209 129.791 139 132 139H152C154.209 139 156 137.209 156 135V63C156 60.7909 154.209 59 152 59Z" stroke="#615D5A" stroke-width="2"/>
<rect x="122.5" y="134" width="28" height="28" rx="3" transform="rotate(-90 122.5 134)" fill="#F9FAFB" stroke="#615D5A" stroke-width="2"/>
<rect x="85.5" y="65" width="21" height="16" rx="3" stroke="#615D5A" stroke-width="2"/>
<circle cx="96" cy="73" r="1.125" stroke="#615D5A" stroke-width="0.75"/>
<rect x="40.5" y="123" width="23" height="20" rx="3" transform="rotate(-90 40.5 123)" stroke="#615D5A" stroke-width="2"/>
<path d="M45.7175 103.779C47.3575 103.779 48.6903 105.116 48.6903 106.769C48.6903 108.423 47.3575 109.76 45.7175 109.76C44.0775 109.76 42.7446 108.423 42.7446 106.769C42.7446 105.116 44.0775 103.779 45.7175 103.779Z" stroke="#615D5A" stroke-width="0.75"/>
<path d="M55.2824 103.779C56.9224 103.779 58.2552 105.116 58.2552 106.769C58.2552 108.423 56.9224 109.76 55.2824 109.76C53.6424 109.76 52.3096 108.423 52.3096 106.769C52.3096 105.116 53.6424 103.779 55.2824 103.779Z" stroke="#615D5A" stroke-width="0.75"/>
<path d="M45.7175 113.394C47.3575 113.394 48.6903 114.731 48.6903 116.385C48.6903 118.038 47.3575 119.375 45.7175 119.375C44.0775 119.375 42.7446 118.038 42.7446 116.385C42.7446 114.731 44.0775 113.394 45.7175 113.394Z" stroke="#615D5A" stroke-width="0.75"/>
<path d="M55.2824 113.394C56.9224 113.394 58.2552 114.731 58.2552 116.385C58.2552 118.038 56.9224 119.375 55.2824 119.375C53.6424 119.375 52.3096 118.038 52.3096 116.385C52.3096 114.731 53.6424 113.394 55.2824 113.394Z" stroke="#615D5A" stroke-width="0.75"/>
</svg>
