<svg width="222" height="213" viewBox="0 0 222 213" fill="none" xmlns="http://www.w3.org/2000/svg">
<path d="M0 7C0 3.13401 3.13401 0 7 0H215C218.866 0 222 3.13401 222 7V206C222 209.866 218.866 213 215 213H7C3.134 213 0 209.866 0 206V7Z" fill="#F9FAFB"/>
<path d="M77.4688 45.8155V166.634" stroke="#615D5A" stroke-width="3" stroke-linecap="round"/>
<path d="M77.4688 45.8155L142.72 45.4941" stroke="#615D5A" stroke-width="3" stroke-linecap="round"/>
<path d="M143.375 45.4844L142.657 166.634" stroke="#615D5A" stroke-width="3" stroke-linecap="round"/>
<path d="M137.233 100.587C137.233 101.476 136.423 102.198 135.422 102.198C134.422 102.198 133.611 101.476 133.611 100.587C133.611 99.6971 134.422 98.9758 135.422 98.9758C136.423 98.9758 137.233 99.3839 137.233 100.587Z" fill="#615D5A"/>
</svg>
