<svg width="222" height="213" viewBox="0 0 222 213" fill="none" xmlns="http://www.w3.org/2000/svg">
<path d="M0 7C0 3.13401 3.13401 0 7 0H215C218.866 0 222 3.13401 222 7V206C222 209.866 218.866 213 215 213H7C3.134 213 0 209.866 0 206V7Z" fill="#F9FAFB"/>
<rect x="76.1562" y="78.6562" width="69.6875" height="55.6875" rx="3" stroke="#615D5A" stroke-width="2"/>
<path d="M134.06 93.9591C134.06 98.5676 129.942 102.363 124.785 102.363C119.628 102.363 115.51 98.5676 115.51 93.9591C115.51 89.3506 119.628 85.5556 124.785 85.5556C129.942 85.5556 134.06 89.3506 134.06 93.9591Z" stroke="#615D5A" stroke-width="0.75"/>
<path d="M134.06 119.041C134.06 123.649 129.942 127.444 124.785 127.444C119.628 127.444 115.51 123.649 115.51 119.041C115.51 114.432 119.628 110.637 124.785 110.637C129.942 110.637 134.06 114.432 134.06 119.041Z" stroke="#615D5A" stroke-width="0.75"/>
<path d="M106.489 93.9592C106.489 98.5677 102.37 102.363 97.2137 102.363C92.0569 102.363 87.9385 98.5677 87.9385 93.9592C87.9385 89.3507 92.0569 85.5557 97.2137 85.5557C102.37 85.5557 106.489 89.3507 106.489 93.9592Z" stroke="#615D5A" stroke-width="0.75"/>
<path d="M106.489 119.041C106.489 123.649 102.37 127.444 97.2137 127.444C92.0569 127.444 87.9385 123.649 87.9385 119.041C87.9385 114.432 92.0569 110.637 97.2137 110.637C102.37 110.637 106.489 114.432 106.489 119.041Z" stroke="#615D5A" stroke-width="0.75"/>
</svg>
