<svg width="192" height="192" viewBox="0 0 192 192" fill="none" xmlns="http://www.w3.org/2000/svg">
<path d="M0 7C0 3.134 3.13401 0 7 0H185C188.866 0 192 3.13401 192 7V185C192 188.866 188.866 192 185 192H7C3.134 192 0 188.866 0 185V7Z" fill="#F9FAFB"/>
<rect x="62" y="72" width="67" height="48" rx="3" stroke="#615D5A" stroke-width="2"/>
<path d="M99.6252 96.0002C99.6252 98.0676 97.8061 99.7918 95.5002 99.7918C93.1944 99.7918 91.3752 98.0676 91.3752 96.0002C91.3752 93.9327 93.1944 92.2085 95.5002 92.2085C97.8061 92.2085 99.6252 93.9327 99.6252 96.0002Z" stroke="#615D5A" stroke-width="0.75"/>
</svg>
